<svg width="512" height="512" viewBox="0 0 512 512" fill="none" xmlns="http://www.w3.org/2000/svg">
<path d="M64 0H448C483.328 0 512 28.672 512 64V448C512 483.328 483.328 512 448 512H64C28.672 512 0 483.328 0 448V64C0 28.64 28.672 0 64 0ZM288 384C288 401.664 302.336 416 320 416H416C433.664 416 448 401.664 448 384V96C448 78.304 433.664 64 416 64H320C302.336 64 288 78.304 288 96V384ZM64 256C64 273.664 78.336 288 96 288H192C209.664 288 224 273.664 224 256V96C224 78.304 209.664 64 192 64H96C78.336 64 64 78.304 64 96V256Z" fill="white"/>
</svg>
