<svg width="1441" height="512" viewBox="0 0 1441 512" fill="none" xmlns="http://www.w3.org/2000/svg">
<path d="M64 0H448C483.328 0 512 28.672 512 64V448C512 483.328 483.328 512 448 512H64C28.672 512 0 483.328 0 448V64C0 28.64 28.672 0 64 0ZM288 384C288 401.664 302.336 416 320 416H416C433.664 416 448 401.664 448 384V96C448 78.304 433.664 64 416 64H320C302.336 64 288 78.304 288 96V384ZM64 256C64 273.664 78.336 288 96 288H192C209.664 288 224 273.664 224 256V96C224 78.304 209.664 64 192 64H96C78.336 64 64 78.304 64 96V256Z" fill="white"/>
<path d="M733.593 381.368C742.147 375.139 747.658 370.922 750.126 368.716C752.594 366.345 755.473 363.606 758.763 360.5C762.053 357.394 764.767 355.742 766.906 355.546C770.196 355.243 771.841 358.886 771.841 366.473C771.841 373.895 768.14 382.317 760.737 391.739C753.498 400.98 744.45 409.151 733.593 416.252C722.735 423.187 711.137 429.448 698.799 435.035C674.287 446.359 653.394 452.814 636.12 454.402C619.011 455.974 603.547 451.787 589.728 441.841C575.909 431.73 569 417.604 569 399.461C569 381.153 573.524 362.512 582.572 343.538C591.62 324.398 603.218 307.334 617.366 292.344C631.678 277.175 648.212 264.44 666.966 254.14C685.885 243.825 704.557 237.821 722.982 236.128C731.865 235.312 739.844 237.135 746.918 241.598C753.992 246.061 757.529 252.746 757.529 261.652C757.529 270.559 753.087 281.688 744.204 295.039C735.485 308.21 726.601 315.212 717.553 316.043C707.024 317.01 701.76 312.464 701.76 302.403C701.76 299.764 704.228 294.836 709.163 287.62C714.098 280.405 716.566 275.642 716.566 273.333C716.566 270.859 715.661 269.705 713.851 269.871C704.803 270.703 695.097 274.729 684.733 281.948C674.369 289.168 664.91 296.635 656.355 304.348C647.965 312.046 639.986 320.531 632.419 329.803C615.968 349.953 607.742 370.088 607.742 390.21C607.742 398.292 610.292 405.068 615.392 410.537C620.656 415.826 629.375 417.911 641.549 416.792C653.887 415.659 666.226 413.123 678.564 409.185C690.902 405.083 701.02 401.019 708.916 396.995C716.977 392.791 725.203 387.582 733.593 381.368Z" fill="white"/>
<path d="M962.344 43.9206C970.241 43.1951 977.15 44.9517 983.073 49.1907C989.16 53.2495 992.203 59.8972 992.203 69.1335C992.203 78.3699 987.103 93.3528 976.904 114.082C966.704 134.647 954.448 155.895 940.135 177.827C925.823 199.594 909.619 222.854 891.523 247.608C862.898 286.854 835.425 322.283 809.103 353.895C808.938 355.889 808.198 359.668 806.882 365.232C805.73 370.616 805.155 376.029 805.155 381.472C805.155 386.915 807.622 391.636 812.558 395.636C817.657 399.456 823.909 401.025 831.312 400.345C838.715 399.665 846.611 396.3 855.001 390.252C863.556 384.188 870.959 377.652 877.21 370.645C893.661 352.145 903.861 342.714 907.809 342.351C911.757 341.988 913.732 347.827 913.732 359.867V364.815C913.732 371.248 912.58 376.054 910.277 379.235C896.458 397.493 880.912 411.621 863.638 421.62C846.365 431.454 829.996 437.082 814.532 438.503C799.068 439.924 787.305 436.304 779.244 427.643C771.183 418.818 767.153 406.158 767.153 389.665C767.153 357.502 775.707 318.946 792.816 273.996C810.09 228.866 829.502 190.054 851.053 157.561C899.584 84.159 936.681 46.2788 962.344 43.9206ZM951.24 86.0098C951.24 83.5358 950.417 82.3744 948.772 82.5255C943.014 83.0546 927.879 100.939 903.367 136.178C878.855 171.418 861.088 199.357 850.066 219.997C839.208 240.622 828.926 266.225 819.22 296.805C838.633 271.93 865.448 233.511 899.666 181.546C934.049 129.401 951.24 97.5553 951.24 86.0098Z" fill="white"/>
<path d="M1055.62 218.18C1060.56 217.727 1065.57 219.492 1070.67 223.477C1075.94 227.446 1078.57 234.049 1078.57 243.286C1078.57 252.357 1075.36 264.527 1068.95 279.796C1062.53 294.9 1053.73 310.553 1042.54 326.755C1031.36 342.792 1019.02 358.11 1005.53 372.709C992.203 387.128 977.726 399.344 962.098 409.357C946.634 419.19 932.568 424.688 919.901 425.852C907.233 427.016 897.034 423.995 889.302 416.788C881.734 409.402 877.951 398.616 877.951 384.432C877.951 370.082 881.405 353.931 888.315 335.978C895.389 318.01 904.437 301.922 915.459 287.715C926.481 273.342 938.408 260.288 951.24 248.553C978.055 224.483 1001.58 211.518 1021.81 209.659C1030.86 208.827 1037.69 210.427 1042.3 214.457C1043.94 215.79 1044.76 217.034 1044.76 218.188V219.673C1047.07 219.131 1050.69 218.634 1055.62 218.18ZM1030.7 253.375L1028.97 253.534C1023.21 254.063 1020.33 250.121 1020.33 241.71C1008.32 246.772 995.74 254.855 982.579 265.961C969.418 277.066 957.656 289.857 947.292 304.334C926.234 333.319 915.541 357.145 915.212 375.813C915.212 385.049 918.585 389.357 925.33 388.737C932.074 388.118 942.11 382.742 955.435 372.611C968.76 362.48 981.921 348.571 994.917 330.883C1008.08 313.181 1017.87 298.014 1024.28 285.385C1030.86 272.575 1034.15 264.026 1034.15 259.737C1034.15 255.284 1033 253.163 1030.7 253.375Z" fill="white"/>
<path d="M1201.95 355.155C1201.95 362.412 1206.89 365.587 1216.76 364.68C1222.02 364.196 1228.6 360.953 1236.5 354.949C1244.56 348.931 1251.8 342.493 1258.22 335.636C1275.33 317.075 1285.03 307.689 1287.33 307.478C1291.61 307.085 1293.75 313.073 1293.75 325.443C1293.75 337.813 1289.88 346.663 1282.15 351.992C1258.63 375.43 1240.45 390.048 1227.62 395.845C1220.38 398.984 1212.4 400.872 1203.68 401.508C1194.96 402.144 1186.33 399.144 1177.77 392.508C1169.22 385.872 1164.94 377.276 1164.94 366.72C1164.94 356 1167.74 343.62 1173.33 329.581C1178.92 315.543 1184.6 303.476 1190.36 293.38C1196.28 283.105 1203.52 271.224 1212.07 257.738C1220.63 244.087 1225.15 235.672 1225.64 232.493L1225.15 232.044C1219.72 233.037 1206.23 244.998 1184.68 267.925C1163.29 290.837 1145.61 310.687 1131.63 327.476C1117.64 344.264 1100.94 366.498 1081.53 394.177C1076.1 401.768 1071.66 405.722 1068.21 406.039C1064.75 406.357 1060.15 405.708 1054.39 404.093C1048.47 402.328 1044.85 401.011 1043.53 400.143C1042.21 399.274 1041.56 397.85 1041.56 395.871C1041.56 393.891 1042.13 391.447 1043.28 388.537C1044.44 385.463 1045.59 382.965 1046.74 381.045C1047.73 378.975 1049.45 375.848 1051.92 371.663C1054.39 367.477 1059.24 358.702 1066.48 345.337C1073.88 331.792 1085.15 311.624 1100.29 284.833C1115.42 258.043 1124.47 241.872 1127.43 236.322C1133.68 224.862 1138.78 216.477 1142.73 211.166C1150.13 201.084 1162.64 195.235 1180.24 193.617C1184.19 193.254 1186.16 195.547 1186.16 200.495C1186.16 208.247 1179 223.501 1164.69 246.258L1154.33 262.797C1182.79 228.514 1206.81 206.267 1226.38 196.057C1235.93 191.057 1244.48 188.209 1252.05 187.514C1259.78 186.803 1265.87 188.306 1270.31 192.021C1274.91 195.721 1277.22 200.128 1277.22 205.24C1277.22 210.189 1275.49 216.367 1272.04 223.777C1268.58 231.022 1265.04 237.614 1261.42 243.555C1257.97 249.315 1253.36 256.665 1247.61 265.606C1241.85 274.547 1238.72 279.452 1238.23 280.322C1237.73 281.028 1236.42 283.128 1234.28 286.623C1232.31 289.938 1230.83 292.383 1229.84 293.958C1228.85 295.533 1227.21 298.324 1224.9 302.329C1222.6 306.169 1220.71 309.394 1219.23 312.004C1217.91 314.599 1216.18 317.809 1214.05 321.634C1212.07 325.444 1210.43 328.729 1209.11 331.489C1207.96 334.234 1206.72 337.233 1205.41 340.488C1203.11 346.472 1201.95 351.361 1201.95 355.155Z" fill="white"/>
<path d="M1440.33 186.294C1440.33 197.18 1435.89 207.154 1427 216.217C1418.28 225.265 1408.33 230.303 1397.15 231.331C1393.53 231.664 1391.14 231.058 1389.99 229.515C1388.84 227.806 1388.26 225.55 1388.26 222.746C1388.26 219.942 1388.59 217.19 1389.25 214.491C1383.33 217.014 1376.75 220.67 1369.51 225.459C1362.27 230.247 1353.39 237.166 1342.86 246.216C1332.33 255.265 1327.06 261.769 1327.06 265.727C1327.06 267.047 1328.96 267.532 1332.74 267.185C1336.69 266.822 1342.69 264.951 1350.75 261.571C1358.81 258.027 1364.41 256.111 1367.53 255.823C1370.82 255.521 1372.96 255.49 1373.95 255.729C1376.09 256.687 1378.39 259.032 1380.86 262.763C1383.33 266.33 1384.56 269.268 1384.56 271.577C1384.56 273.721 1382.42 276.804 1378.14 280.826C1373.87 284.847 1369.01 288.097 1363.59 290.575C1358.16 292.888 1354.54 294.623 1352.73 295.779C1318.02 318.431 1300.66 333.385 1300.66 340.642C1300.66 353.507 1311.6 358.934 1333.48 356.924C1347.46 355.639 1361.53 349.893 1375.68 339.687C1387.69 330.996 1398.46 322.337 1408 313.708C1417.71 304.899 1423.8 299.474 1426.26 297.433C1428.9 295.377 1430.87 294.289 1432.19 294.168C1436.46 293.775 1438.6 298.361 1438.6 307.928C1438.6 317.494 1438.03 323.897 1436.87 327.136C1435.72 330.211 1432.43 334.224 1427 339.176C1391.8 371.11 1358.49 388.52 1327.06 391.408C1310.28 392.949 1296.88 391.872 1286.84 388.176C1268.42 381.458 1259.2 369.439 1259.2 352.121C1259.2 329.36 1274.91 310.681 1306.34 296.083C1300.08 293.854 1296.05 290.678 1294.24 286.556C1292.43 282.269 1291.53 275.342 1291.53 265.776C1291.53 256.045 1295.97 245.411 1304.85 233.874C1313.9 222.157 1324.93 212.237 1337.92 204.116C1366.88 185.786 1392.7 175.579 1415.41 173.493C1420.83 172.994 1426.35 173.807 1431.94 175.932C1437.53 178.057 1440.33 181.511 1440.33 186.294Z" fill="white"/>
</svg>
